<?xml version="1.0" standalone="no"?><!DOCTYPE svg PUBLIC "-//W3C//DTD SVG 1.1//EN" "http://www.w3.org/Graphics/SVG/1.1/DTD/svg11.dtd"><svg t="1541138643601" class="icon" style="" viewBox="0 0 1024 1024" version="1.1" xmlns="http://www.w3.org/2000/svg" p-id="6342" xmlns:xlink="http://www.w3.org/1999/xlink" width="48" height="48"><defs><style type="text/css"></style></defs><path d="M929.551 262.162q-8.332-4.166-16.664-4.166-0.833 0-2.5 0-7.499 0-14.997 4.166-62.49 36.661-186.636 109.148-16.664 8.332-16.664 29.995 0 74.154 0 223.296 0 20.83 16.664 29.995 169.138 97.484 186.636 107.482 7.499 4.166 15.831 4.166 1.666 0 2.5 0 7.499 0 15.831-4.166 16.664-8.332 16.664-29.162 0-147.475 0-441.593 0-20.83-16.664-29.162zM912.054 702.922q0 10.832-8.332 14.998-4.166 2.5-8.332 2.5-4.166 0-9.165-2.5-50.825-29.162-151.641-87.485-9.165-6.666-9.165-15.831 0-67.489 0-203.299 0-11.665 9.165-15.831 50.825-29.162 151.641-88.319 4.999-2.5 9.165-2.5 4.166 0 8.332 2.5 8.332 6.666 8.332 15.831 0 126.646 0 379.937zM575.443 234.667q-102.483 0-411.598 0-29.162 0-49.992 21.663-20.83 20.83-20.83 49.992 0 36.661 0 109.148 0 38.327 0 113.314 0 37.494 0 84.986 0 23.329 0 49.992 0 25.829 0 54.158 0 29.995 20.83 50.825 20.83 20.83 49.992 20.83 137.477 0 411.598 0 29.162 0 49.992-21.663 20.83-20.83 20.83-49.992 0-137.477 0-411.598 0-29.995-21.663-50.825-20.83-20.83-49.158-20.83zM610.437 727.085q0 11.665-8.332 19.997t-19.997 8.332q-142.476 0-426.596 0-11.665 0-19.997-8.332-8.332-8.332-8.332-19.997 0-9.998 0-22.496 0-59.99 0-161.64 0-9.998 0-23.329 0-11.665 0-25.829 0-68.322 0-196.634 0-11.665 8.332-19.997 8.332-8.332 19.997-8.332 142.476 0 426.596 0 11.665 0 19.997 8.332 8.332 8.332 8.332 19.997 0 143.309 0 429.928z" p-id="6343" fill="#e6e6e6"></path></svg>